<svg width="16" height="16" viewBox="0 0 16 16" fill="none" xmlns="http://www.w3.org/2000/svg">
<g clip-path="url(#clip0_66_5132)">
<path d="M5.97721 2.57143L6.46864 1.30285C6.55152 1.08807 6.69733 0.903325 6.88698 0.772812C7.07664 0.6423 7.30128 0.572106 7.53149 0.571426H8.46864C8.69885 0.572106 8.9235 0.6423 9.11315 0.772812C9.30281 0.903325 9.44861 1.08807 9.53149 1.30285L10.0229 2.57143L11.6914 3.53143L13.04 3.32571C13.2646 3.29523 13.4932 3.33219 13.6967 3.43191C13.9001 3.53162 14.0694 3.68957 14.1829 3.88571L14.64 4.68571C14.7572 4.88497 14.8112 5.11506 14.7949 5.34562C14.7785 5.57618 14.6927 5.79637 14.5486 5.97714L13.7143 7.04V8.96L14.5714 10.0229C14.7156 10.2036 14.8014 10.4238 14.8177 10.6544C14.8341 10.8849 14.78 11.115 14.6629 11.3143L14.2057 12.1143C14.0922 12.3104 13.923 12.4683 13.7196 12.5681C13.516 12.6678 13.2874 12.7048 13.0629 12.6743L11.7143 12.4686L10.0458 13.4286L9.55435 14.6971C9.47147 14.9119 9.32566 15.0967 9.13601 15.2272C8.94636 15.3577 8.72171 15.4279 8.49149 15.4286H7.53149C7.30128 15.4279 7.07664 15.3577 6.88698 15.2272C6.69733 15.0967 6.55152 14.9119 6.46864 14.6971L5.97721 13.4286L4.30864 12.4686L2.96006 12.6743C2.73552 12.7048 2.50697 12.6678 2.30347 12.5681C2.09998 12.4683 1.93073 12.3104 1.81721 12.1143L1.36006 11.3143C1.24292 11.115 1.18896 10.8849 1.20528 10.6544C1.2216 10.4238 1.30745 10.2036 1.45149 10.0229L2.28578 8.96V7.04L1.42864 5.97714C1.28459 5.79637 1.19874 5.57618 1.18242 5.34562C1.1661 5.11506 1.22006 4.88497 1.33721 4.68571L1.79435 3.88571C1.90787 3.68957 2.07713 3.53162 2.28061 3.43191C2.48411 3.33219 2.71266 3.29523 2.93721 3.32571L4.28578 3.53143L5.97721 2.57143ZM5.71435 8C5.71435 8.45207 5.84841 8.89399 6.09956 9.26987C6.35073 9.64576 6.7077 9.93872 7.12536 10.1117C7.54302 10.2847 8.0026 10.33 8.44598 10.2418C8.88937 10.1536 9.29665 9.93591 9.61632 9.61624C9.93597 9.29658 10.1537 8.8893 10.2419 8.44592C10.3301 8.00253 10.2848 7.54296 10.1118 7.12529C9.9388 6.70763 9.64582 6.35065 9.26994 6.09949C8.89405 5.84834 8.45213 5.71428 8.00006 5.71428C7.39386 5.71428 6.81248 5.95509 6.38382 6.38376C5.95517 6.81241 5.71435 7.39379 5.71435 8Z" stroke="black" stroke-linecap="round" stroke-linejoin="round"/>
</g>
<defs>
<clipPath id="clip0_66_5132">
<rect width="16" height="16" fill="white"/>
</clipPath>
</defs>
</svg>
