<svg width="16" height="16" viewBox="0 0 16 16" fill="none" xmlns="http://www.w3.org/2000/svg">
<g clip-path="url(#clip0_66_5113)">
<path d="M14.8572 7.42857H10.2857C9.97013 7.42857 9.71429 7.68441 9.71429 7.99999V14.8571C9.71429 15.1727 9.97013 15.4286 10.2857 15.4286H14.8572C15.1727 15.4286 15.4286 15.1727 15.4286 14.8571V7.99999C15.4286 7.68441 15.1727 7.42857 14.8572 7.42857Z" stroke="black" stroke-linecap="round" stroke-linejoin="round"/>
<path d="M14.8572 0.571426H10.2857C9.97013 0.571426 9.71429 0.827264 9.71429 1.14285V3.44C9.71429 3.75559 9.97013 4.01143 10.2857 4.01143H14.8572C15.1727 4.01143 15.4286 3.75559 15.4286 3.44V1.14285C15.4286 0.827264 15.1727 0.571426 14.8572 0.571426Z" stroke="black" stroke-linecap="round" stroke-linejoin="round"/>
<path d="M5.71427 0.571426H1.14284C0.827249 0.571426 0.571411 0.827264 0.571411 1.14285V8C0.571411 8.31559 0.827249 8.57143 1.14284 8.57143H5.71427C6.02986 8.57143 6.2857 8.31559 6.2857 8V1.14285C6.2857 0.827264 6.02986 0.571426 5.71427 0.571426Z" stroke="black" stroke-linecap="round" stroke-linejoin="round"/>
<path d="M5.71427 11.9886H1.14284C0.827249 11.9886 0.571411 12.2443 0.571411 12.56V14.8571C0.571411 15.1727 0.827249 15.4286 1.14284 15.4286H5.71427C6.02986 15.4286 6.2857 15.1727 6.2857 14.8571V12.56C6.2857 12.2443 6.02986 11.9886 5.71427 11.9886Z" stroke="black" stroke-linecap="round" stroke-linejoin="round"/>
</g>
<defs>
<clipPath id="clip0_66_5113">
<rect width="16" height="16" fill="white"/>
</clipPath>
</defs>
</svg>
