<svg width="94" height="92" viewBox="0 0 94 92" fill="none" xmlns="http://www.w3.org/2000/svg">
<path d="M83.2448 47.6763L83.2472 47.6783C83.9335 48.2385 84.4473 48.9771 84.7313 49.8102C85.0152 50.6433 85.0582 51.5382 84.8555 52.3941L76.4563 87.7156L76.455 87.7214C76.3159 88.3394 76.0489 88.9224 75.6706 89.4337C75.2923 89.9449 74.8108 90.3734 74.2564 90.6918L74.2556 90.6922C73.1264 91.3435 71.7818 91.5251 70.5171 91.1967C55.1819 86.9991 38.984 86.9994 23.6488 91.1976L23.6488 91.1975L23.643 91.1992C23.2382 91.3153 22.8188 91.3747 22.3972 91.3755C21.5238 91.3743 20.6673 91.1391 19.9186 90.6952L19.9162 90.6938C19.364 90.3707 18.8842 89.9402 18.5056 89.4285C18.127 88.9168 17.8575 88.3347 17.7131 87.7174L17.7127 87.716L9.3465 52.3941L9.34619 52.3928C9.14113 51.5372 9.18188 50.6418 9.4639 49.8078C9.74594 48.9737 10.2582 48.2337 10.9435 47.6718C11.6288 47.1099 12.4598 46.7486 13.3425 46.6294C14.2252 46.5103 15.1239 46.638 15.9368 46.998L15.9378 46.9984L32.6044 54.3368L33.0201 54.5198L33.2421 54.1235L42.9234 36.842C42.9238 36.8413 42.9242 36.8406 42.9247 36.8398C43.3433 36.1108 43.9497 35.504 44.6828 35.0814C45.4167 34.6584 46.2511 34.4353 47.101 34.4353C47.9508 34.4353 48.7852 34.6584 49.5191 35.0814C50.2523 35.504 50.8587 36.1108 51.2773 36.8398C51.2777 36.8406 51.2781 36.8413 51.2786 36.842L60.9599 54.1235L61.1819 54.5198L61.5976 54.3368L78.2642 46.9984L78.2658 46.9977C79.0765 46.6374 79.9734 46.5099 80.8541 46.6301C81.7348 46.7502 82.5632 47.1129 83.2448 47.6763Z" fill="#FFCA28" stroke="#FFCA28"/>
<path d="M57.5664 10.9662C57.5664 16.7466 52.8805 21.4325 47.1002 21.4325C41.3198 21.4325 36.6339 16.7466 36.6339 10.9662C36.6339 5.1859 41.3198 0.5 47.1002 0.5C52.8805 0.5 57.5664 5.1859 57.5664 10.9662Z" fill="#FFCA28" stroke="#FFCA28"/>
<path d="M54.8252 49.3481C54.8252 53.6143 51.3667 57.0728 47.1005 57.0728C42.8343 57.0728 39.3758 53.6143 39.3758 49.3481C39.3758 45.0819 42.8343 41.6234 47.1005 41.6234C51.3667 41.6234 54.8252 45.0819 54.8252 49.3481Z" fill="white" stroke="#FFCA28"/>
<path d="M93.206 28.7864C93.206 32.2955 90.3613 35.1403 86.8521 35.1403C83.343 35.1403 80.4982 32.2955 80.4982 28.7864C80.4982 25.2772 83.343 22.4325 86.8521 22.4325C90.3613 22.4325 93.206 25.2772 93.206 28.7864Z" fill="#FFCA28" stroke="#FFCA28"/>
<path d="M13.7009 28.7864C13.7009 32.2955 10.8561 35.1403 7.34698 35.1403C3.83781 35.1403 0.993074 32.2955 0.993074 28.7864C0.993074 25.2772 3.83781 22.4325 7.34698 22.4325C10.8561 22.4325 13.7009 25.2772 13.7009 28.7864Z" fill="#FFCA28" stroke="#FFCA28"/>
<path d="M30.1494 53.4604C30.1494 55.4554 28.5321 57.0727 26.537 57.0727C24.542 57.0727 22.9247 55.4554 22.9247 53.4604C22.9247 51.4654 24.542 49.8481 26.537 49.8481C28.5321 49.8481 30.1494 51.4654 30.1494 53.4604Z" fill="white" stroke="#FFCA28"/>
<path d="M71.2739 53.4604C71.2739 55.4554 69.6566 57.0727 67.6616 57.0727C65.6666 57.0727 64.0493 55.4554 64.0493 53.4604C64.0493 51.4654 65.6666 49.8481 67.6616 49.8481C69.6566 49.8481 71.2739 51.4654 71.2739 53.4604Z" fill="white" stroke="#FFCA28"/>
</svg>
