<svg width="81" height="84" viewBox="0 0 81 84" fill="none" xmlns="http://www.w3.org/2000/svg">
<path d="M60.4856 82.7451C47.3418 79.1474 33.4586 79.1477 20.3149 82.746L20.3149 82.7459L20.3091 82.7476C19.9689 82.8452 19.6164 82.8951 19.2621 82.8958C18.5271 82.8947 17.8063 82.6967 17.1763 82.3233L17.1739 82.3219C16.7094 82.0501 16.3059 81.6879 15.9875 81.2576C15.6691 80.8274 15.4425 80.3378 15.3211 79.8188L15.3207 79.8174L8.15672 49.5713L8.15641 49.57C7.98398 48.8505 8.01824 48.0976 8.25541 47.3962C8.49258 46.6948 8.92342 46.0724 9.49988 45.5998C10.0764 45.1271 10.7755 44.8231 11.5182 44.7228C12.2609 44.6225 13.0171 44.73 13.701 45.0329L13.702 45.0333L27.9736 51.3171L28.3893 51.5002L28.6113 51.1039L36.901 36.3064C36.9014 36.3057 36.9018 36.305 36.9022 36.3043C37.2543 35.6912 37.7644 35.1808 38.3812 34.8252C38.9987 34.4693 39.7008 34.2816 40.4159 34.2816C41.1311 34.2816 41.8332 34.4693 42.4507 34.8252C43.0674 35.1807 43.5775 35.6911 43.9296 36.3041C43.93 36.3049 43.9305 36.3056 43.9309 36.3064L52.2206 51.1039L52.4426 51.5002L52.8583 51.3171L67.1299 45.0333L67.1315 45.0326C67.8135 44.7295 68.5681 44.6223 69.309 44.7233C70.05 44.8244 70.7468 45.1295 71.3201 45.6034L71.3225 45.6054C71.8998 46.0766 72.3319 46.6978 72.5707 47.3984C72.8095 48.099 72.8457 48.8516 72.6752 49.5713M60.4856 82.7451C60.4867 82.7454 60.4877 82.7457 60.4888 82.746L60.3567 83.2282L60.4827 82.7443C60.4837 82.7446 60.4847 82.7448 60.4856 82.7451ZM60.4856 82.7451C61.5503 83.0214 62.6821 82.8685 63.6325 82.3203L63.6333 82.3198C64.0995 82.0521 64.5043 81.6919 64.8223 81.2621C65.1403 80.8323 65.3647 80.3422 65.4817 79.8228L65.483 79.817L65.4831 79.817L72.6752 49.5713M72.6752 49.5713L73.1606 49.6863L72.6753 49.5709L72.6752 49.5713Z" fill="#ADEF44" stroke="#ADEF44"/>
<circle cx="40.4153" cy="9.39039" r="8.89039" fill="#ADEF44" stroke="#ADEF44"/>
<circle cx="40.0747" cy="47.0428" r="6.54279" fill="white" stroke="#ADEF44"/>
<path d="M79.8247 24.6498C79.8247 27.615 77.4209 30.0188 74.4557 30.0188C71.4905 30.0188 69.0867 27.615 69.0867 24.6498C69.0867 21.6846 71.4905 19.2808 74.4557 19.2808C77.4209 19.2808 79.8247 21.6846 79.8247 24.6498Z" fill="#ADEF44" stroke="#ADEF44"/>
<path d="M11.7444 24.6498C11.7444 27.615 9.34061 30.0188 6.3754 30.0188C3.41019 30.0188 1.00641 27.615 1.00641 24.6498C1.00641 21.6846 3.41019 19.2808 6.3754 19.2808C9.34061 19.2808 11.7444 21.6846 11.7444 24.6498Z" fill="#ADEF44" stroke="#ADEF44"/>
<circle cx="20.5533" cy="48.5214" r="3.0214" fill="white" stroke="#ADEF44"/>
<circle cx="59.5533" cy="48.5214" r="3.0214" fill="white" stroke="#ADEF44"/>
</svg>
