<svg width="14" height="18" viewBox="0 0 14 18" fill="none" xmlns="http://www.w3.org/2000/svg">
<path fill-rule="evenodd" clip-rule="evenodd" d="M0.311208 10.207C0.72614 9.7921 1.39888 9.7921 1.81381 10.207L6.72918 15.1224L11.6445 10.207C12.0595 9.7921 12.7322 9.7921 13.1471 10.207C13.5621 10.622 13.5621 11.2947 13.1471 11.7096L7.48048 17.3763C7.06554 17.7912 6.39281 17.7912 5.97787 17.3763L0.311208 11.7096C-0.103724 11.2947 -0.103724 10.622 0.311208 10.207Z" fill="#820000"/>
<path fill-rule="evenodd" clip-rule="evenodd" d="M13.1471 7.48047C12.7322 7.8954 12.0595 7.8954 11.6445 7.48047L6.72917 2.5651L1.8138 7.48047C1.39887 7.8954 0.726132 7.8954 0.311199 7.48047C-0.103733 7.06553 -0.103733 6.3928 0.311199 5.97786L5.97787 0.311199C6.3928 -0.103733 7.06554 -0.103733 7.48047 0.311199L13.1471 5.97786C13.5621 6.3928 13.5621 7.06553 13.1471 7.48047Z" fill="#00821D"/>
</svg>
