<svg width="81" height="84" viewBox="0 0 81 84" fill="none" xmlns="http://www.w3.org/2000/svg">
<path d="M60.4837 82.7451C47.3399 79.1474 33.4567 79.1477 20.313 82.746L20.313 82.7459L20.3072 82.7476C19.9669 82.8452 19.6145 82.8951 19.2602 82.8958C18.5252 82.8947 17.8044 82.6967 17.1744 82.3233L17.172 82.3219C16.7075 82.0501 16.304 81.6879 15.9856 81.2576C15.6672 80.8274 15.4406 80.3378 15.3191 79.8188L15.3188 79.8174L8.1548 49.5713L8.15449 49.57C7.98206 48.8505 8.01632 48.0976 8.25348 47.3962C8.49066 46.6948 8.9215 46.0724 9.49796 45.5998C10.0745 45.1271 10.7735 44.8231 11.5163 44.7228C12.259 44.6225 13.0151 44.73 13.6991 45.0329L13.7 45.0333L27.9717 51.3171L28.3874 51.5002L28.6094 51.1039L36.8991 36.3064C36.8995 36.3057 36.8999 36.305 36.9003 36.3043C37.2524 35.6912 37.7625 35.1808 38.3792 34.8252C38.9967 34.4693 39.6988 34.2816 40.414 34.2816C41.1292 34.2816 41.8313 34.4693 42.4488 34.8252C43.0655 35.1807 43.5756 35.6911 43.9277 36.3041C43.9281 36.3049 43.9285 36.3056 43.929 36.3064L52.2187 51.1039L52.4407 51.5002L52.8564 51.3171L67.128 45.0333L67.1296 45.0326C67.8116 44.7295 68.5662 44.6223 69.3071 44.7233C70.048 44.8244 70.7449 45.1295 71.3182 45.6034L71.3206 45.6054C71.8979 46.0766 72.33 46.6978 72.5688 47.3984C72.8076 48.099 72.8437 48.8516 72.6732 49.5713M60.4837 82.7451C60.4848 82.7454 60.4858 82.7457 60.4868 82.746L60.3548 83.2282L60.4808 82.7443C60.4818 82.7446 60.4827 82.7448 60.4837 82.7451ZM60.4837 82.7451C61.5484 83.0214 62.6802 82.8685 63.6306 82.3203L63.6314 82.3198C64.0976 82.0521 64.5024 81.6919 64.8204 81.2621C65.1384 80.8323 65.3628 80.3422 65.4798 79.8228L65.4811 79.817L65.4811 79.817L72.6732 49.5713M72.6732 49.5713L73.1587 49.6863L72.6733 49.5709L72.6732 49.5713Z" fill="#49E89C" stroke="#49E89C"/>
<circle cx="40.4134" cy="9.39039" r="8.89039" fill="#49E89C" stroke="#49E89C"/>
<circle cx="40.0747" cy="49.0428" r="6.54279" fill="white" stroke="#49E89C"/>
<path d="M79.8228 24.6497C79.8228 27.6149 77.419 30.0187 74.4538 30.0187C71.4886 30.0187 69.0848 27.6149 69.0848 24.6497C69.0848 21.6845 71.4886 19.2807 74.4538 19.2807C77.419 19.2807 79.8228 21.6845 79.8228 24.6497Z" fill="#49E89C" stroke="#49E89C"/>
<path d="M11.7425 24.6497C11.7425 27.6149 9.33869 30.0187 6.37348 30.0187C3.40827 30.0187 1.00449 27.6149 1.00449 24.6497C1.00449 21.6845 3.40827 19.2807 6.37348 19.2807C9.33869 19.2807 11.7425 21.6845 11.7425 24.6497Z" fill="#49E89C" stroke="#49E89C"/>
<circle cx="19.5533" cy="48.5214" r="3.0214" fill="white" stroke="#49E89C"/>
<circle cx="59.5533" cy="48.5214" r="3.0214" fill="white" stroke="#49E89C"/>
</svg>
