<svg width="20" height="20" viewBox="0 0 20 20" fill="none" xmlns="http://www.w3.org/2000/svg">
<path d="M10.0333 19.1C15.055 19.1 19.1258 15.0257 19.1258 10C19.1258 4.97429 15.055 0.9 10.0333 0.9C5.01155 0.9 0.940771 4.97429 0.940771 10C0.940771 15.0257 5.01155 19.1 10.0333 19.1Z" stroke="#FF9040" stroke-width="0.2"/>
<path d="M10.0333 10.7929L7.76677 8.14645C7.59955 7.95118 7.32842 7.95118 7.16119 8.14645C6.99396 8.34171 6.99396 8.65829 7.16119 8.85355L9.73048 11.8536C9.8977 12.0488 10.1688 12.0488 10.3361 11.8536L12.9053 8.85355C13.0726 8.65829 13.0726 8.34171 12.9053 8.14645C12.7381 7.95118 12.467 7.95118 12.2998 8.14645L10.0333 10.7929Z" fill="#FF9040"/>
<mask id="mask0_66_5139" style="mask-type:luminance" maskUnits="userSpaceOnUse" x="7" y="8" width="7" height="4">
<path d="M10.0333 10.7929L7.76677 8.14645C7.59955 7.95118 7.32842 7.95118 7.16119 8.14645C6.99396 8.34171 6.99396 8.65829 7.16119 8.85355L9.73048 11.8536C9.8977 12.0488 10.1688 12.0488 10.3361 11.8536L12.9053 8.85355C13.0726 8.65829 13.0726 8.34171 12.9053 8.14645C12.7381 7.95118 12.467 7.95118 12.2998 8.14645L10.0333 10.7929Z" fill="white"/>
</mask>
<g mask="url(#mask0_66_5139)">
</g>
</svg>
