<svg width="30" height="30" viewBox="0 0 30 30" fill="none" xmlns="http://www.w3.org/2000/svg">
<circle cx="15" cy="15.005" r="15" fill="#FF6340"/>
<rect width="21" height="21" transform="translate(4.5 4.505)" fill="#FF6340"/>
<path d="M15 7.78625C13.1878 7.78625 11.7188 9.25532 11.7188 11.0675C11.7188 12.8797 13.1878 14.3488 15 14.3488C16.8122 14.3488 18.2813 12.8797 18.2813 11.0675C18.2813 9.25532 16.8122 7.78625 15 7.78625Z" fill="white"/>
<path d="M11.5 16.0988C9.68782 16.0988 8.21875 17.5678 8.21875 19.38V20.4198C8.21875 21.0788 8.6964 21.6408 9.34686 21.747C13.0908 22.3582 16.9092 22.3582 20.6531 21.747C21.3036 21.6408 21.7813 21.0788 21.7813 20.4198V19.38C21.7813 17.5678 20.3122 16.0988 18.5 16.0988H18.2017C18.0403 16.0988 17.8799 16.1243 17.7264 16.1744L16.9691 16.4217C15.6896 16.8395 14.3104 16.8395 13.0309 16.4217L12.2736 16.1744C12.1201 16.1243 11.9597 16.0988 11.7983 16.0988H11.5Z" fill="white"/>
</svg>
