<svg width="40" height="40" viewBox="0 0 40 40" fill="none" xmlns="http://www.w3.org/2000/svg">
<circle cx="20" cy="20" r="20" fill="#FF9040"/>
<rect width="28" height="28" transform="translate(6 6)" fill="#FF9040"/>
<path d="M20 10.375C17.5838 10.375 15.625 12.3338 15.625 14.75C15.625 17.1662 17.5838 19.125 20 19.125C22.4163 19.125 24.375 17.1662 24.375 14.75C24.375 12.3338 22.4163 10.375 20 10.375Z" fill="white"/>
<path d="M15.3333 21.4583C12.9171 21.4583 10.9583 23.4171 10.9583 25.8333V27.2197C10.9583 28.0984 11.5952 28.8477 12.4625 28.9893C17.4545 29.8043 22.5456 29.8043 27.5375 28.9893C28.4048 28.8477 29.0417 28.0984 29.0417 27.2197V25.8333C29.0417 23.4171 27.0829 21.4583 24.6667 21.4583H24.269C24.0538 21.4583 23.8399 21.4924 23.6353 21.5592L22.6255 21.8889C20.9195 22.446 19.0805 22.446 17.3745 21.8889L16.3648 21.5592C16.1602 21.4924 15.9463 21.4583 15.731 21.4583H15.3333Z" fill="white"/>
</svg>
