<svg width="30" height="30" viewBox="0 0 30 30" fill="none" xmlns="http://www.w3.org/2000/svg">
<circle cx="15" cy="15.006" r="15" fill="#40A4FF"/>
<rect width="21" height="21" transform="translate(4.5 4.50598)" fill="#40A4FF"/>
<path d="M15 7.78723C13.1878 7.78723 11.7188 9.2563 11.7188 11.0685C11.7188 12.8807 13.1878 14.3497 15 14.3497C16.8122 14.3497 18.2813 12.8807 18.2813 11.0685C18.2813 9.2563 16.8122 7.78723 15 7.78723Z" fill="white"/>
<path d="M11.5 16.0997C9.68782 16.0997 8.21875 17.5688 8.21875 19.381V20.4207C8.21875 21.0798 8.6964 21.6418 9.34686 21.748C13.0908 22.3592 16.9092 22.3592 20.6531 21.748C21.3036 21.6418 21.7813 21.0798 21.7813 20.4207V19.381C21.7813 17.5688 20.3122 16.0997 18.5 16.0997H18.2017C18.0403 16.0997 17.8799 16.1253 17.7264 16.1754L16.9691 16.4227C15.6896 16.8405 14.3104 16.8405 13.0309 16.4227L12.2736 16.1754C12.1201 16.1253 11.9597 16.0997 11.7983 16.0997H11.5Z" fill="white"/>
</svg>
