<svg width="30" height="30" viewBox="0 0 30 30" fill="none" xmlns="http://www.w3.org/2000/svg">
<circle cx="15" cy="15.0071" r="15" fill="#FF9040"/>
<rect width="21" height="21" transform="translate(4.5 4.50708)" fill="#FF9040"/>
<path d="M15 7.78833C13.1878 7.78833 11.7188 9.2574 11.7188 11.0696C11.7188 12.8818 13.1878 14.3508 15 14.3508C16.8122 14.3508 18.2813 12.8818 18.2813 11.0696C18.2813 9.2574 16.8122 7.78833 15 7.78833Z" fill="white"/>
<path d="M11.5 16.1008C9.68782 16.1008 8.21875 17.5699 8.21875 19.3821V20.4218C8.21875 21.0809 8.6964 21.6429 9.34686 21.7491C13.0908 22.3603 16.9092 22.3603 20.6531 21.7491C21.3036 21.6429 21.7813 21.0809 21.7813 20.4218V19.3821C21.7813 17.5699 20.3122 16.1008 18.5 16.1008H18.2017C18.0403 16.1008 17.8799 16.1264 17.7264 16.1765L16.9691 16.4238C15.6896 16.8416 14.3104 16.8416 13.0309 16.4238L12.2736 16.1765C12.1201 16.1264 11.9597 16.1008 11.7983 16.1008H11.5Z" fill="white"/>
</svg>
