<svg width="30" height="30" viewBox="0 0 30 30" fill="none" xmlns="http://www.w3.org/2000/svg">
<circle cx="15" cy="15.0081" r="15" fill="#0FC060"/>
<rect width="21" height="21" transform="translate(4.5 4.50806)" fill="#0FC060"/>
<path d="M15 7.78931C13.1878 7.78931 11.7188 9.25837 11.7188 11.0706C11.7188 12.8827 13.1878 14.3518 15 14.3518C16.8122 14.3518 18.2813 12.8827 18.2813 11.0706C18.2813 9.25837 16.8122 7.78931 15 7.78931Z" fill="white"/>
<path d="M11.5 16.1018C9.68782 16.1018 8.21875 17.5709 8.21875 19.3831V20.4228C8.21875 21.0819 8.6964 21.6438 9.34686 21.75C13.0908 22.3613 16.9092 22.3613 20.6531 21.75C21.3036 21.6438 21.7813 21.0819 21.7813 20.4228V19.3831C21.7813 17.5709 20.3122 16.1018 18.5 16.1018H18.2017C18.0403 16.1018 17.8799 16.1273 17.7264 16.1774L16.9691 16.4247C15.6896 16.8425 14.3104 16.8425 13.0309 16.4247L12.2736 16.1774C12.1201 16.1273 11.9597 16.1018 11.7983 16.1018H11.5Z" fill="white"/>
</svg>
