<svg width="16" height="16" viewBox="0 0 16 16" fill="none" xmlns="http://www.w3.org/2000/svg">
<path d="M13.7143 12V14.2857C13.7143 14.5888 13.5938 14.8795 13.3795 15.0938C13.1652 15.3081 12.8745 15.4286 12.5714 15.4286H1.71427C1.41116 15.4286 1.12047 15.3081 0.906146 15.0938C0.691819 14.8795 0.571411 14.5888 0.571411 14.2857V5.71428C0.571411 3.82074 2.10644 2.28571 3.99998 2.28571H11.4286V5.14286" stroke="black" stroke-linecap="round" stroke-linejoin="round"/>
<path d="M14.8571 8.57143H10.8571C10.5415 8.57143 10.2857 8.82727 10.2857 9.14285V11.4286C10.2857 11.7441 10.5415 12 10.8571 12H14.8571C15.1727 12 15.4286 11.7441 15.4286 11.4286V9.14285C15.4286 8.82727 15.1727 8.57143 14.8571 8.57143Z" stroke="black" stroke-linecap="round" stroke-linejoin="round"/>
<path d="M13.7143 8.57143V6.28571C13.7143 5.98261 13.5938 5.69192 13.3795 5.47759C13.1653 5.26327 12.8745 5.14286 12.5714 5.14286H11.4286H4" stroke="black" stroke-linecap="round" stroke-linejoin="round"/>
</svg>
